SubSource-HROTn_VROTdd_SLENn_SANGx.ufo
<glyph name="percent" format="2">
  <advance width="723"/>
  <unicode hex="0025"/>
  <outline>
    <contour>
      <point x="491" y="7" type="curve" smooth="yes"/>
      <point x="445" y="36"/>
      <point x="413" y="99"/>
      <point x="413" y="186" type="curve" smooth="yes"/>
      <point x="413" y="307"/>
      <point x="474" y="382"/>
      <point x="554" y="382" type="curve" smooth="yes"/>
      <point x="633" y="382"/>
      <point x="697" y="307"/>
      <point x="697" y="186" type="curve" smooth="yes"/>
      <point x="697" y="99"/>
      <point x="664" y="35"/>
      <point x="616" y="7" type="curve" smooth="yes"/>
      <point x="559" y="-29"/>
      <point x="512" y="48"/>
      <point x="570" y="83" type="curve" smooth="yes"/>
      <point x="594" y="98"/>
      <point x="607" y="142"/>
      <point x="607" y="186" type="curve" smooth="yes"/>
      <point x="607" y="238"/>
      <point x="588" y="292"/>
      <point x="554" y="292" type="curve" smooth="yes"/>
      <point x="520" y="292"/>
      <point x="503" y="237"/>
      <point x="503" y="186" type="curve" smooth="yes"/>
      <point x="503" y="142"/>
      <point x="516" y="98"/>
      <point x="539" y="83" type="curve" smooth="yes"/>
      <point x="596" y="47"/>
      <point x="548" y="-29"/>
    </contour>
    <contour>
      <point x="548" y="622" type="curve" smooth="yes"/>
      <point x="523" y="564"/>
      <point x="486" y="495"/>
      <point x="449" y="420" type="curve" smooth="yes"/>
      <point x="401" y="325"/>
      <point x="352" y="225"/>
      <point x="321" y="162" type="curve" smooth="yes"/>
      <point x="298" y="116"/>
      <point x="273" y="68"/>
      <point x="248" y="20" type="curve" smooth="yes"/>
      <point x="217" y="-41"/>
      <point x="137" y="0"/>
      <point x="168" y="60" type="curve" smooth="yes"/>
      <point x="191" y="106"/>
      <point x="216" y="154"/>
      <point x="241" y="202" type="curve" smooth="yes"/>
      <point x="272" y="265"/>
      <point x="321" y="365"/>
      <point x="369" y="460" type="curve" smooth="yes"/>
      <point x="406" y="537"/>
      <point x="441" y="602"/>
      <point x="466" y="658" type="curve" smooth="yes"/>
      <point x="493" y="720"/>
      <point x="575" y="684"/>
    </contour>
    <contour>
      <point x="230" y="672" type="curve" smooth="yes"/>
      <point x="278" y="644"/>
      <point x="311" y="580"/>
      <point x="311" y="493" type="curve" smooth="yes"/>
      <point x="311" y="372"/>
      <point x="247" y="297"/>
      <point x="168" y="297" type="curve" smooth="yes"/>
      <point x="88" y="297"/>
      <point x="27" y="372"/>
      <point x="27" y="493" type="curve" smooth="yes"/>
      <point x="27" y="580"/>
      <point x="59" y="643"/>
      <point x="105" y="672" type="curve" smooth="yes"/>
      <point x="162" y="708"/>
      <point x="210" y="632"/>
      <point x="153" y="596" type="curve" smooth="yes"/>
      <point x="130" y="581"/>
      <point x="117" y="537"/>
      <point x="117" y="493" type="curve" smooth="yes"/>
      <point x="117" y="442"/>
      <point x="134" y="387"/>
      <point x="168" y="387" type="curve" smooth="yes"/>
      <point x="202" y="387"/>
      <point x="221" y="441"/>
      <point x="221" y="493" type="curve" smooth="yes"/>
      <point x="221" y="537"/>
      <point x="208" y="581"/>
      <point x="184" y="596" type="curve" smooth="yes"/>
      <point x="126" y="631"/>
      <point x="173" y="708"/>
    </contour>
  </outline>
</glyph>
<glyph name="ampersand" format="2">
  <advance width="448"/>
  <unicode hex="0026"/>
  <outline>
    <contour>
      <point x="407" y="303" type="curve" smooth="yes"/>
      <point x="267" y="303" type="line" smooth="yes"/>
      <point x="166" y="303"/>
      <point x="121" y="266"/>
      <point x="121" y="180" type="curve" smooth="yes"/>
      <point x="121" y="119"/>
      <point x="151" y="79"/>
      <point x="203" y="79" type="curve" smooth="yes"/>
      <point x="258" y="79"/>
      <point x="288" y="126"/>
      <point x="288" y="198" type="curve" smooth="yes"/>
      <point x="287" y="471" type="line" smooth="yes"/>
      <point x="287" y="538"/>
      <point x="377" y="539"/>
      <point x="377" y="471" type="curve" smooth="yes"/>
      <point x="378" y="198" type="line" smooth="yes"/>
      <point x="378" y="67"/>
      <point x="303" y="-11"/>
      <point x="203" y="-11" type="curve" smooth="yes"/>
      <point x="105" y="-11"/>
      <point x="31" y="65"/>
      <point x="31" y="180" type="curve" smooth="yes"/>
      <point x="31" y="313"/>
      <point x="112" y="393"/>
      <point x="267" y="393" type="curve" smooth="yes"/>
      <point x="407" y="393" type="line" smooth="yes"/>
      <point x="475" y="393"/>
      <point x="475" y="303"/>
    </contour>
    <contour>
      <point x="283" y="581" type="curve" smooth="yes"/>
      <point x="213" y="618"/>
      <point x="133" y="606"/>
      <point x="133" y="503" type="curve" smooth="yes"/>
      <point x="133" y="434"/>
      <point x="174" y="393"/>
      <point x="267" y="393" type="curve" smooth="yes"/>
      <point x="335" y="393"/>
      <point x="335" y="303"/>
      <point x="267" y="303" type="curve" smooth="yes"/>
      <point x="116" y="303"/>
      <point x="43" y="392"/>
      <point x="43" y="503" type="curve" smooth="yes"/>
      <point x="43" y="684"/>
      <point x="203" y="726"/>
      <point x="325" y="661" type="curve" smooth="yes"/>
      <point x="385" y="629"/>
      <point x="342" y="550"/>
    </contour>
  </outline>
</glyph>
<glyph name="quotesingle" format="2">
  <advance width="211"/>
  <unicode hex="0027"/>
  <outline>
    <contour>
      <point x="60" y="438" type="curve" smooth="yes"/>
      <point x="60" y="640" type="line" smooth="yes"/>
      <point x="60" y="708"/>
      <point x="150" y="708"/>
      <point x="150" y="640" type="curve" smooth="yes"/>
      <point x="150" y="438" type="line" smooth="yes"/>
      <point x="150" y="371"/>
      <point x="60" y="371"/>
    </contour>
  </outline>
</glyph>
<glyph name="asterisk" format="2">
  <advance width="434"/>
  <unicode hex="002A"/>
  <outline>
    <contour>
      <point x="60" y="509" type="curve" smooth="yes"/>
      <point x="94" y="509"/>
      <point x="109" y="509"/>
      <point x="132" y="509" type="curve" smooth="yes"/>
      <point x="192" y="509"/>
      <point x="262" y="453"/>
      <point x="289" y="384" type="curve" smooth="yes"/>
      <point x="304" y="349"/>
      <point x="311" y="333"/>
      <point x="325" y="296" type="curve" smooth="yes"/>
      <point x="349" y="233"/>
      <point x="266" y="201"/>
      <point x="241" y="264" type="curve" smooth="yes"/>
      <point x="227" y="299"/>
      <point x="220" y="315"/>
      <point x="205" y="352" type="curve" smooth="yes"/>
      <point x="194" y="380"/>
      <point x="157" y="419"/>
      <point x="132" y="419" type="curve" smooth="yes"/>
      <point x="98" y="419"/>
      <point x="83" y="419"/>
      <point x="60" y="419" type="curve" smooth="yes"/>
      <point x="-7" y="419"/>
      <point x="-7" y="509"/>
    </contour>
    <contour>
      <point x="325" y="632" type="curve" smooth="yes"/>
      <point x="311" y="596"/>
      <point x="304" y="579"/>
      <point x="290" y="544" type="curve" smooth="yes"/>
      <point x="263" y="475"/>
      <point x="192" y="419"/>
      <point x="132" y="419" type="curve" smooth="yes"/>
      <point x="98" y="419"/>
      <point x="83" y="419"/>
      <point x="60" y="419" type="curve" smooth="yes"/>
      <point x="-8" y="419"/>
      <point x="-7" y="509"/>
      <point x="60" y="509" type="curve" smooth="yes"/>
      <point x="94" y="509"/>
      <point x="109" y="509"/>
      <point x="132" y="509" type="curve" smooth="yes"/>
      <point x="157" y="509"/>
      <point x="195" y="548"/>
      <point x="206" y="576" type="curve" smooth="yes"/>
      <point x="220" y="612"/>
      <point x="227" y="629"/>
      <point x="241" y="664" type="curve" smooth="yes"/>
      <point x="266" y="727"/>
      <point x="349" y="695"/>
    </contour>
    <contour>
      <point x="356" y="419" type="curve" smooth="yes"/>
      <point x="322" y="419"/>
      <point x="307" y="419"/>
      <point x="284" y="419" type="curve" smooth="yes"/>
      <point x="225" y="419"/>
      <point x="155" y="474"/>
      <point x="127" y="543" type="curve" smooth="yes"/>
      <point x="113" y="579"/>
      <point x="106" y="596"/>
      <point x="92" y="632" type="curve" smooth="yes"/>
      <point x="68" y="695"/>
      <point x="151" y="727"/>
      <point x="176" y="664" type="curve" smooth="yes"/>
      <point x="190" y="629"/>
      <point x="197" y="612"/>
      <point x="211" y="577" type="curve" smooth="yes"/>
      <point x="222" y="549"/>
      <point x="260" y="509"/>
      <point x="284" y="509" type="curve" smooth="yes"/>
      <point x="318" y="509"/>
      <point x="333" y="509"/>
      <point x="356" y="509" type="curve" smooth="yes"/>
      <point x="424" y="509"/>
      <point x="424" y="419"/>
    </contour>
    <contour>
      <point x="92" y="296" type="curve" smooth="yes"/>
      <point x="106" y="333"/>
      <point x="116" y="353"/>
      <point x="130" y="388" type="curve" smooth="yes"/>
      <point x="157" y="456"/>
      <point x="225" y="509"/>
      <point x="284" y="509" type="curve" smooth="yes"/>
      <point x="318" y="509"/>
      <point x="333" y="509"/>
      <point x="356" y="509" type="curve" smooth="yes"/>
      <point x="424" y="509"/>
      <point x="424" y="419"/>
      <point x="356" y="419" type="curve" smooth="yes"/>
      <point x="322" y="419"/>
      <point x="307" y="419"/>
      <point x="284" y="419" type="curve" smooth="yes"/>
      <point x="260" y="419"/>
      <point x="225" y="383"/>
      <point x="214" y="354" type="curve" smooth="yes"/>
      <point x="198" y="317"/>
      <point x="190" y="299"/>
      <point x="176" y="264" type="curve" smooth="yes"/>
      <point x="151" y="201"/>
      <point x="68" y="233"/>
    </contour>
    <contour>
      <point x="176" y="663" type="curve" smooth="yes"/>
      <point x="190" y="628"/>
      <point x="197" y="612"/>
      <point x="212" y="576" type="curve" smooth="yes"/>
      <point x="233" y="524"/>
      <point x="271" y="431"/>
      <point x="290" y="383" type="curve" smooth="yes"/>
      <point x="304" y="348"/>
      <point x="311" y="332"/>
      <point x="325" y="297" type="curve" smooth="yes"/>
      <point x="350" y="234"/>
      <point x="266" y="201"/>
      <point x="241" y="263" type="curve" smooth="yes"/>
      <point x="227" y="298"/>
      <point x="220" y="314"/>
      <point x="206" y="349" type="curve" smooth="yes"/>
      <point x="185" y="401"/>
      <point x="147" y="494"/>
      <point x="128" y="542" type="curve" smooth="yes"/>
      <point x="113" y="578"/>
      <point x="106" y="594"/>
      <point x="92" y="631" type="curve" smooth="yes"/>
      <point x="68" y="694"/>
      <point x="151" y="726"/>
    </contour>
  </outline>
</glyph>
<glyph name="plus" format="2">
  <advance width="382"/>
  <unicode hex="002B"/>
  <outline>
    <contour>
      <point x="236" y="504" type="curve" smooth="yes"/>
      <point x="236" y="349"/>
      <point x="236" y="219"/>
      <point x="236" y="114" type="curve" smooth="yes"/>
      <point x="236" y="46"/>
      <point x="146" y="47"/>
      <point x="146" y="114" type="curve" smooth="yes"/>
      <point x="146" y="271"/>
      <point x="146" y="400"/>
      <point x="146" y="504" type="curve" smooth="yes"/>
      <point x="146" y="572"/>
      <point x="236" y="572"/>
    </contour>
    <contour>
      <point x="325" y="263" type="curve" smooth="yes"/>
      <point x="218" y="263"/>
      <point x="129" y="263"/>
      <point x="57" y="263" type="curve" smooth="yes"/>
      <point x="-11" y="263"/>
      <point x="-10" y="353"/>
      <point x="57" y="353" type="curve" smooth="yes"/>
      <point x="164" y="353"/>
      <point x="253" y="353"/>
      <point x="325" y="353" type="curve" smooth="yes"/>
      <point x="393" y="353"/>
      <point x="393" y="263"/>
    </contour>
  </outline>
</glyph>
<glyph name="six" format="2">
  <advance width="378"/>
  <unicode hex="0036"/>
  <outline>
    <contour>
      <point x="56" y="339" type="curve" smooth="yes"/>
      <point x="85" y="397"/>
      <point x="137" y="440"/>
      <point x="200" y="440" type="curve" smooth="yes"/>
      <point x="291" y="440"/>
      <point x="368" y="355"/>
      <point x="368" y="221" type="curve" smooth="yes"/>
      <point x="368" y="84"/>
      <point x="297" y="-8"/>
      <point x="196" y="-8" type="curve" smooth="yes"/>
      <point x="112" y="-8"/>
      <point x="15" y="69"/>
      <point x="15" y="314" type="curve" smooth="yes"/>
      <point x="15" y="592"/>
      <point x="125" y="687"/>
      <point x="222" y="687" type="curve" smooth="yes"/>
      <point x="257" y="687"/>
      <point x="294" y="675"/>
      <point x="326" y="650" type="curve" smooth="yes"/>
      <point x="379" y="609"/>
      <point x="323" y="538"/>
      <point x="270" y="580" type="curve" smooth="yes"/>
      <point x="256" y="591"/>
      <point x="239" y="597"/>
      <point x="222" y="597" type="curve" smooth="yes"/>
      <point x="159" y="597"/>
      <point x="105" y="496"/>
      <point x="105" y="314" type="curve" smooth="yes"/>
      <point x="105" y="167"/>
      <point x="145" y="82"/>
      <point x="196" y="82" type="curve" smooth="yes"/>
      <point x="250" y="82"/>
      <point x="278" y="148"/>
      <point x="278" y="221" type="curve" smooth="yes"/>
      <point x="278" y="291"/>
      <point x="248" y="350"/>
      <point x="200" y="350" type="curve" smooth="yes"/>
      <point x="172" y="350"/>
      <point x="149" y="325"/>
      <point x="136" y="299" type="curve" smooth="yes"/>
      <point x="106" y="239"/>
      <point x="26" y="279"/>
    </contour>
  </outline>
</glyph>
<glyph name="eight" format="2">
  <advance width="379"/>
  <unicode hex="0038"/>
  <outline>
    <contour>
      <point x="133" y="1" type="curve" smooth="yes"/>
      <point x="65" y="27"/>
      <point x="19" y="99"/>
      <point x="19" y="202" type="curve" smooth="yes"/>
      <point x="19" y="335"/>
      <point x="98" y="404"/>
      <point x="191" y="404" type="curve" smooth="yes"/>
      <point x="232" y="404"/>
      <point x="256" y="443"/>
      <point x="256" y="496" type="curve" smooth="yes"/>
      <point x="256" y="553"/>
      <point x="232" y="599"/>
      <point x="191" y="599" type="curve" smooth="yes"/>
      <point x="149" y="599"/>
      <point x="124" y="551"/>
      <point x="124" y="496" type="curve" smooth="yes"/>
      <point x="124" y="437"/>
      <point x="148" y="404"/>
      <point x="190" y="404" type="curve" smooth="yes"/>
      <point x="282" y="404"/>
      <point x="360" y="335"/>
      <point x="360" y="202" type="curve" smooth="yes"/>
      <point x="360" y="99"/>
      <point x="313" y="24"/>
      <point x="244" y="0" type="curve" smooth="yes"/>
      <point x="181" y="-23"/>
      <point x="150" y="62"/>
      <point x="214" y="84" type="curve" smooth="yes"/>
      <point x="251" y="98"/>
      <point x="270" y="147"/>
      <point x="270" y="202" type="curve" smooth="yes"/>
      <point x="270" y="274"/>
      <point x="240" y="314"/>
      <point x="190" y="314" type="curve" smooth="yes"/>
      <point x="105" y="314"/>
      <point x="34" y="378"/>
      <point x="34" y="496" type="curve" smooth="yes"/>
      <point x="34" y="611"/>
      <point x="104" y="689"/>
      <point x="191" y="689" type="curve" smooth="yes"/>
      <point x="277" y="689"/>
      <point x="346" y="614"/>
      <point x="346" y="496" type="curve" smooth="yes"/>
      <point x="346" y="384"/>
      <point x="277" y="314"/>
      <point x="191" y="314" type="curve" smooth="yes"/>
      <point x="140" y="314"/>
      <point x="109" y="275"/>
      <point x="109" y="202" type="curve" smooth="yes"/>
      <point x="109" y="146"/>
      <point x="128" y="99"/>
      <point x="165" y="85" type="curve" smooth="yes"/>
      <point x="228" y="61"/>
      <point x="196" y="-23"/>
    </contour>
  </outline>
</glyph>
<glyph name="H" format="2">
  <advance width="486"/>
  <unicode hex="0048"/>
  <outline>
    <contour>
      <point x="134" y="640" type="curve" smooth="yes"/>
      <point x="134" y="592"/>
      <point x="134" y="556"/>
      <point x="134" y="524" type="curve" smooth="yes"/>
      <point x="134" y="403"/>
      <point x="134" y="237"/>
      <point x="134" y="130" type="curve" smooth="yes"/>
      <point x="134" y="88"/>
      <point x="44" y="-187"/>
      <point x="44" y="127" type="curve" smooth="yes"/>
      <point x="44" y="183"/>
      <point x="44" y="226"/>
      <point x="44" y="264" type="curve" smooth="yes"/>
      <point x="44" y="359"/>
      <point x="101" y="399"/>
      <point x="153" y="399" type="curve" smooth="yes"/>
      <point x="226" y="399"/>
      <point x="285" y="399"/>
      <point x="335" y="399" type="curve" smooth="yes"/>
      <point x="352" y="399"/>
      <point x="354" y="421"/>
      <point x="354" y="444" type="curve" smooth="yes"/>
      <point x="354" y="487"/>
      <point x="354" y="521"/>
      <point x="354" y="550" type="curve" smooth="yes"/>
      <point x="354" y="592"/>
      <point x="444" y="865"/>
      <point x="444" y="550" type="curve" smooth="yes"/>
      <point x="444" y="390"/>
      <point x="444" y="195"/>
      <point x="444" y="157" type="curve" smooth="yes"/>
      <point x="444" y="109"/>
      <point x="444" y="72"/>
      <point x="444" y="40" type="curve" smooth="yes"/>
      <point x="444" y="-28"/>
      <point x="354" y="-27"/>
      <point x="354" y="40" type="curve" smooth="yes"/>
      <point x="354" y="88"/>
      <point x="354" y="125"/>
      <point x="354" y="157" type="curve" smooth="yes"/>
      <point x="354" y="213"/>
      <point x="354" y="443"/>
      <point x="354" y="550" type="curve" smooth="yes"/>
      <point x="354" y="592"/>
      <point x="444" y="865"/>
      <point x="444" y="550" type="curve" smooth="yes"/>
      <point x="444" y="507"/>
      <point x="444" y="473"/>
      <point x="444" y="444" type="curve" smooth="yes"/>
      <point x="444" y="358"/>
      <point x="402" y="309"/>
      <point x="335" y="309" type="curve" smooth="yes"/>
      <point x="261" y="309"/>
      <point x="202" y="309"/>
      <point x="153" y="309" type="curve" smooth="yes"/>
      <point x="140" y="309"/>
      <point x="134" y="288"/>
      <point x="134" y="264" type="curve" smooth="yes"/>
      <point x="134" y="208"/>
      <point x="134" y="165"/>
      <point x="134" y="127" type="curve" smooth="yes"/>
      <point x="134" y="85"/>
      <point x="44" y="-187"/>
      <point x="44" y="130" type="curve" smooth="yes"/>
      <point x="44" y="290"/>
      <point x="44" y="443"/>
      <point x="44" y="524" type="curve" smooth="yes"/>
      <point x="44" y="572"/>
      <point x="44" y="608"/>
      <point x="44" y="640" type="curve" smooth="yes"/>
      <point x="44" y="708"/>
      <point x="134" y="708"/>
    </contour>
  </outline>
</glyph>
<glyph name="Q" format="2">
  <advance width="518"/>
  <unicode hex="0051"/>
  <outline>
    <contour>
      <point x="357" y="-48" type="curve" smooth="yes"/>
      <point x="343" y="-17"/>
      <point x="313" y="55"/>
      <point x="285" y="117" type="curve" smooth="yes"/>
      <point x="267" y="157"/>
      <point x="252" y="192"/>
      <point x="243" y="213" type="curve" smooth="yes"/>
      <point x="215" y="274"/>
      <point x="297" y="311"/>
      <point x="325" y="249" type="curve" smooth="yes"/>
      <point x="334" y="230"/>
      <point x="349" y="195"/>
      <point x="367" y="155" type="curve" smooth="yes"/>
      <point x="395" y="93"/>
      <point x="425" y="21"/>
      <point x="439" y="-10" type="curve" smooth="yes"/>
      <point x="467" y="-72"/>
      <point x="385" y="-109"/>
    </contour>
    <contour>
      <point x="286" y="-7" type="curve" smooth="yes"/>
      <point x="144" y="-29"/>
      <point x="19" y="108"/>
      <point x="19" y="341" type="curve" smooth="yes"/>
      <point x="19" y="552"/>
      <point x="123" y="690"/>
      <point x="260" y="690" type="curve" smooth="yes"/>
      <point x="397" y="690"/>
      <point x="499" y="552"/>
      <point x="499" y="341" type="curve" smooth="yes"/>
      <point x="499" y="258"/>
      <point x="482" y="185"/>
      <point x="455" y="124" type="curve" smooth="yes"/>
      <point x="406" y="17"/>
      <point x="318" y="39"/>
      <point x="285" y="119" type="curve" smooth="yes"/>
      <point x="277" y="138"/>
      <point x="263" y="171"/>
      <point x="244" y="211" type="curve" smooth="yes"/>
      <point x="215" y="272"/>
      <point x="297" y="310"/>
      <point x="326" y="249" type="curve" smooth="yes"/>
      <point x="345" y="209"/>
      <point x="359" y="174"/>
      <point x="369" y="153" type="curve" smooth="yes"/>
      <point x="370" y="149"/>
      <point x="371" y="157"/>
      <point x="373" y="162" type="curve" smooth="yes"/>
      <point x="396" y="211"/>
      <point x="409" y="272"/>
      <point x="409" y="341" type="curve" smooth="yes"/>
      <point x="409" y="483"/>
      <point x="352" y="600"/>
      <point x="260" y="600" type="curve" smooth="yes"/>
      <point x="168" y="600"/>
      <point x="109" y="484"/>
      <point x="109" y="341" type="curve" smooth="yes"/>
      <point x="109" y="186"/>
      <point x="178" y="67"/>
      <point x="272" y="81" type="curve" smooth="yes"/>
      <point x="339" y="92"/>
      <point x="352" y="3"/>
    </contour>
  </outline>
</glyph>
<glyph name="T" format="2">
  <advance width="352"/>
  <unicode hex="0054"/>
  <outline>
    <contour>
      <point x="299" y="590" type="curve" smooth="yes"/>
      <point x="221" y="590"/>
      <point x="154" y="590"/>
      <point x="102" y="590" type="curve" smooth="yes"/>
      <point x="81" y="590"/>
      <point x="-149" y="680"/>
      <point x="95" y="680" type="curve" smooth="yes"/>
      <point x="170" y="680"/>
      <point x="221" y="617"/>
      <point x="221" y="504" type="curve" smooth="yes"/>
      <point x="221" y="400"/>
      <point x="221" y="262"/>
      <point x="221" y="201" type="curve" smooth="yes"/>
      <point x="221" y="102"/>
      <point x="221" y="65"/>
      <point x="221" y="40" type="curve" smooth="yes"/>
      <point x="221" y="-28"/>
      <point x="131" y="-27"/>
      <point x="131" y="40" type="curve" smooth="yes"/>
      <point x="131" y="78"/>
      <point x="131" y="135"/>
      <point x="131" y="201" type="curve" smooth="yes"/>
      <point x="131" y="292"/>
      <point x="131" y="435"/>
      <point x="131" y="504" type="curve" smooth="yes"/>
      <point x="131" y="545"/>
      <point x="122" y="590"/>
      <point x="95" y="590" type="curve" smooth="yes"/>
      <point x="74" y="590"/>
      <point x="-147" y="680"/>
      <point x="102" y="680" type="curve" smooth="yes"/>
      <point x="180" y="680"/>
      <point x="247" y="680"/>
      <point x="299" y="680" type="curve" smooth="yes"/>
      <point x="367" y="680"/>
      <point x="367" y="590"/>
    </contour>
  </outline>
</glyph>
<glyph name="U" format="2">
  <advance width="472"/>
  <unicode hex="0055"/>
  <outline>
    <contour>
      <point x="126" y="640" type="curve" smooth="yes"/>
      <point x="126" y="597"/>
      <point x="126" y="533"/>
      <point x="126" y="504" type="curve" smooth="yes"/>
      <point x="126" y="396"/>
      <point x="126" y="341"/>
      <point x="126" y="268" type="curve" smooth="yes"/>
      <point x="126" y="167"/>
      <point x="169" y="80"/>
      <point x="237" y="80" type="curve" smooth="yes"/>
      <point x="307" y="80"/>
      <point x="346" y="167"/>
      <point x="346" y="268" type="curve" smooth="yes"/>
      <point x="346" y="376"/>
      <point x="346" y="431"/>
      <point x="346" y="504" type="curve" smooth="yes"/>
      <point x="346" y="547"/>
      <point x="346" y="611"/>
      <point x="346" y="640" type="curve" smooth="yes"/>
      <point x="346" y="708"/>
      <point x="436" y="708"/>
      <point x="436" y="640" type="curve" smooth="yes"/>
      <point x="436" y="597"/>
      <point x="436" y="533"/>
      <point x="436" y="504" type="curve" smooth="yes"/>
      <point x="436" y="396"/>
      <point x="436" y="341"/>
      <point x="436" y="268" type="curve" smooth="yes"/>
      <point x="436" y="101"/>
      <point x="352" y="-10"/>
      <point x="237" y="-10" type="curve" smooth="yes"/>
      <point x="124" y="-10"/>
      <point x="36" y="101"/>
      <point x="36" y="268" type="curve" smooth="yes"/>
      <point x="36" y="376"/>
      <point x="36" y="431"/>
      <point x="36" y="504" type="curve" smooth="yes"/>
      <point x="36" y="547"/>
      <point x="36" y="611"/>
      <point x="36" y="640" type="curve" smooth="yes"/>
      <point x="36" y="708"/>
      <point x="126" y="708"/>
    </contour>
  </outline>
</glyph>
<glyph name="bracketright" format="2">
  <advance width="304"/>
  <unicode hex="005D"/>
  <outline>
    <contour>
      <point x="60" y="-68" type="curve" smooth="yes"/>
      <point x="192" y="-68" type="line"/>
      <point x="147" y="-113" type="line"/>
      <point x="147" y="723" type="line"/>
      <point x="192" y="678" type="line"/>
      <point x="60" y="678" type="line" smooth="yes"/>
      <point x="-8" y="678"/>
      <point x="-7" y="768"/>
      <point x="60" y="768" type="curve" smooth="yes"/>
      <point x="192" y="768" type="line" smooth="yes"/>
      <point x="217" y="768"/>
      <point x="237" y="748"/>
      <point x="237" y="723" type="curve" smooth="yes"/>
      <point x="237" y="-113" type="line" smooth="yes"/>
      <point x="237" y="-138"/>
      <point x="217" y="-158"/>
      <point x="192" y="-158" type="curve" smooth="yes"/>
      <point x="60" y="-158" type="line" smooth="yes"/>
      <point x="-7" y="-158"/>
      <point x="-7" y="-68"/>
    </contour>
  </outline>
</glyph>
<glyph name="underscore" format="2">
  <advance width="379"/>
  <unicode hex="005F"/>
  <outline>
    <contour>
      <point x="380" y="-123" type="curve" smooth="yes"/>
      <point x="225" y="-123"/>
      <point x="102" y="-123"/>
      <point x="-1" y="-123" type="curve" smooth="yes"/>
      <point x="-69" y="-123"/>
      <point x="-68" y="-33"/>
      <point x="-1" y="-33" type="curve" smooth="yes"/>
      <point x="153" y="-33"/>
      <point x="276" y="-33"/>
      <point x="380" y="-33" type="curve" smooth="yes"/>
      <point x="448" y="-33"/>
      <point x="448" y="-123"/>
    </contour>
  </outline>
</glyph>
<glyph name="b" format="2">
  <advance width="412"/>
  <unicode hex="0062"/>
  <outline>
    <contour>
      <point x="33" y="44" type="curve" smooth="yes"/>
      <point x="33" y="110"/>
      <point x="33" y="148"/>
      <point x="33" y="250" type="curve" smooth="yes"/>
      <point x="33" y="408"/>
      <point x="114" y="508"/>
      <point x="215" y="508" type="curve" smooth="yes"/>
      <point x="316" y="508"/>
      <point x="399" y="406"/>
      <point x="399" y="248" type="curve" smooth="yes"/>
      <point x="399" y="89"/>
      <point x="314" y="-11"/>
      <point x="216" y="-11" type="curve" smooth="yes"/>
      <point x="110" y="-11"/>
      <point x="41" y="99"/>
      <point x="37" y="198" type="curve" smooth="yes"/>
      <point x="27" y="405"/>
      <point x="33" y="455"/>
      <point x="33" y="607" type="curve" smooth="yes"/>
      <point x="33" y="639"/>
      <point x="33" y="670"/>
      <point x="33" y="695" type="curve" smooth="yes"/>
      <point x="33" y="763"/>
      <point x="123" y="763"/>
      <point x="123" y="695" type="curve" smooth="yes"/>
      <point x="123" y="657"/>
      <point x="123" y="628"/>
      <point x="123" y="607" type="curve" smooth="yes"/>
      <point x="123" y="457"/>
      <point x="117" y="407"/>
      <point x="127" y="202" type="curve" smooth="yes"/>
      <point x="129" y="152"/>
      <point x="163" y="79"/>
      <point x="216" y="79" type="curve" smooth="yes"/>
      <point x="271" y="79"/>
      <point x="309" y="159"/>
      <point x="309" y="248" type="curve" smooth="yes"/>
      <point x="309" y="337"/>
      <point x="272" y="418"/>
      <point x="215" y="418" type="curve" smooth="yes"/>
      <point x="158" y="418"/>
      <point x="123" y="339"/>
      <point x="123" y="250" type="curve" smooth="yes"/>
      <point x="123" y="98"/>
      <point x="123" y="88"/>
      <point x="123" y="44" type="curve" smooth="yes"/>
      <point x="123" y="-24"/>
      <point x="33" y="-23"/>
    </contour>
  </outline>
</glyph>
<glyph name="n" format="2">
  <advance width="402"/>
  <unicode hex="006E"/>
  <outline>
    <contour>
      <point x="-1099.5790532604476" y="40.00555680216975" type="curve" smooth="yes"/>
      <point x="-1099.5745124297405" y="76.7992121974244"/>
      <point x="-1099.566933280221" y="138.2118993507475"/>
      <point x="-1099.562392449514" y="175.00555474600216" type="curve" smooth="yes"/>
      <point x="-1099.5565278755744" y="222.52529870736876"/>
      <point x="-1099.5516641458876" y="261.93535505943316"/>
      <point x="-1099.547829666624" y="293.0055529487594" type="curve" smooth="yes"/>
      <point x="-1099.5387371220972" y="366.6810479354086"/>
      <point x="-1120.9493670530287" y="417.9999967558245"/>
      <point x="-1164.1284008127989" y="417.9999967558245" type="curve" smooth="yes"/>
      <point x="-1224.6950410867241" y="417.9999967558245"/>
      <point x="-1260.5631193466838" y="354.72457839998634"/>
      <point x="-1260.575057142739" y="257.9944462744662" type="curve" smooth="yes"/>
      <point x="-1260.5834780694213" y="189.7609677658372"/>
      <point x="-1260.5860105070185" y="169.24101397895592"/>
      <point x="-1260.5908540597723" y="129.99444822401765" type="curve" smooth="yes"/>
      <point x="-1260.5960982646466" y="87.50145973275389"/>
      <point x="-1350.6298656138842" y="-186.10464312747663"/>
      <point x="-1350.590853374383" y="130.00555543139134" type="curve" smooth="yes"/>
      <point x="-1350.5804775897209" y="214.07894859380937"/>
      <point x="-1350.5690931001636" y="306.32572295579223"/>
      <point x="-1350.565183384204" y="338.00555226336996" type="curve" smooth="yes"/>
      <point x="-1350.561147090242" y="370.7110237258186"/>
      <point x="-1350.5563887221147" y="409.26735150093043"/>
      <point x="-1350.5503737744853" y="458.0055504356655" type="curve" smooth="yes"/>
      <point x="-1350.5420433689553" y="525.5055499216236"/>
      <point x="-1260.5420440543446" y="525.4944427142502"/>
      <point x="-1260.5503744598745" y="457.99444322829214" type="curve" smooth="yes"/>
      <point x="-1260.5544107538365" y="425.28897176584354"/>
      <point x="-1260.5591691219638" y="386.7326439907318"/>
      <point x="-1260.5651840695932" y="337.9944450559967" type="curve" smooth="yes"/>
      <point x="-1260.567807660668" y="316.73588860540514"/>
      <point x="-1260.583891452688" y="186.41138649674144"/>
      <point x="-1260.5908540597723" y="129.9944482240177" type="curve" smooth="yes"/>
      <point x="-1260.5960982646466" y="87.50145973275387"/>
      <point x="-1350.6298656138842" y="-186.1046431274766"/>
      <point x="-1350.590853374383" y="130.0055554313914" type="curve" smooth="yes"/>
      <point x="-1350.5836354372275" y="188.4913941530735"/>
      <point x="-1350.5807072688963" y="212.21789343441182"/>
      <point x="-1350.5750564573498" y="258.0055534818398" type="curve" smooth="yes"/>
      <point x="-1350.5548829678241" y="421.4682477858003"/>
      <point x="-1266.4789919529783" y="507.9999967558245"/>
      <point x="-1164.1284008127989" y="507.9999967558245" type="curve" smooth="yes"/>
      <point x="-1079.1939560220483" y="507.9999967558245"/>
      <point x="-1009.5299450462556" y="437.9163376065299"/>
      <point x="-1009.5478303520133" y="292.9944457413857" type="curve" smooth="yes"/>
      <point x="-1009.5535445522619" y="246.69315675338748"/>
      <point x="-1009.5584577482908" y="206.88228221451593"/>
      <point x="-1009.5623931349032" y="174.99444753862846" type="curve" smooth="yes"/>
      <point x="-1009.5691599509875" y="120.16397373705152"/>
      <point x="-1009.5722871297527" y="94.82492339637297"/>
      <point x="-1009.5790539458369" y="39.99444959479602" type="curve" smooth="yes"/>
      <point x="-1009.5873843513672" y="-27.505549891162076"/>
      <point x="-1099.587383665978" y="-27.49444268378835"/>
    </contour>
  </outline>
</glyph>
<glyph name="t" format="2">
  <advance width="238"/>
  <unicode hex="0074"/>
  <outline>
    <contour>
      <point x="70" y="40" type="curve" smooth="yes"/>
      <point x="70" y="83"/>
      <point x="70" y="115"/>
      <point x="70" y="165" type="curve" smooth="yes"/>
      <point x="70" y="298"/>
      <point x="70" y="365"/>
      <point x="70" y="463" type="curve" smooth="yes"/>
      <point x="70" y="514"/>
      <point x="71" y="551"/>
      <point x="71" y="588" type="curve" smooth="yes"/>
      <point x="71" y="656"/>
      <point x="161" y="656"/>
      <point x="161" y="588" type="curve" smooth="yes"/>
      <point x="161" y="551"/>
      <point x="160" y="514"/>
      <point x="160" y="463" type="curve" smooth="yes"/>
      <point x="160" y="317"/>
      <point x="160" y="254"/>
      <point x="160" y="165" type="curve" smooth="yes"/>
      <point x="160" y="91"/>
      <point x="160" y="69"/>
      <point x="160" y="40" type="curve" smooth="yes"/>
      <point x="160" y="-28"/>
      <point x="70" y="-27"/>
    </contour>
    <contour>
      <point x="198" y="408" type="curve" smooth="yes"/>
      <point x="180" y="408"/>
      <point x="168" y="408"/>
      <point x="157" y="408" type="curve" smooth="yes"/>
      <point x="125" y="408"/>
      <point x="100" y="408"/>
      <point x="79" y="408" type="curve" smooth="yes"/>
      <point x="64" y="408"/>
      <point x="52" y="408"/>
      <point x="41" y="408" type="curve" smooth="yes"/>
      <point x="-27" y="408"/>
      <point x="-26" y="498"/>
      <point x="41" y="498" type="curve" smooth="yes"/>
      <point x="58" y="498"/>
      <point x="69" y="498"/>
      <point x="79" y="498" type="curve" smooth="yes"/>
      <point x="111" y="498"/>
      <point x="136" y="498"/>
      <point x="157" y="498" type="curve" smooth="yes"/>
      <point x="174" y="498"/>
      <point x="186" y="498"/>
      <point x="198" y="498" type="curve" smooth="yes"/>
      <point x="266" y="498"/>
      <point x="266" y="408"/>
    </contour>
  </outline>
</glyph>
<glyph name="yen" format="2">
  <advance width="423"/>
  <unicode hex="00A5"/>
  <outline>
    <contour>
      <point x="345" y="113" type="curve" smooth="yes"/>
      <point x="238" y="113"/>
      <point x="150" y="113"/>
      <point x="77" y="113" type="curve" smooth="yes"/>
      <point x="9" y="113"/>
      <point x="10" y="203"/>
      <point x="77" y="203" type="curve" smooth="yes"/>
      <point x="185" y="203"/>
      <point x="273" y="203"/>
      <point x="345" y="203" type="curve" smooth="yes"/>
      <point x="413" y="203"/>
      <point x="413" y="113"/>
    </contour>
    <contour>
      <point x="402" y="621" type="curve" smooth="yes"/>
      <point x="374" y="560"/>
      <point x="331" y="466"/>
      <point x="307" y="413" type="curve" smooth="yes"/>
      <point x="257" y="305"/>
      <point x="235" y="273"/>
      <point x="159" y="273" type="curve" smooth="yes"/>
      <point x="121" y="273"/>
      <point x="103" y="273"/>
      <point x="78" y="273" type="curve" smooth="yes"/>
      <point x="10" y="273"/>
      <point x="11" y="363"/>
      <point x="78" y="363" type="curve" smooth="yes"/>
      <point x="115" y="363"/>
      <point x="134" y="363"/>
      <point x="159" y="363" type="curve" smooth="yes"/>
      <point x="193" y="363"/>
      <point x="203" y="403"/>
      <point x="225" y="451" type="curve" smooth="yes"/>
      <point x="249" y="504"/>
      <point x="292" y="598"/>
      <point x="320" y="659" type="curve" smooth="yes"/>
      <point x="348" y="720"/>
      <point x="430" y="683"/>
    </contour>
    <contour>
      <point x="104" y="659" type="curve" smooth="yes"/>
      <point x="120" y="624"/>
      <point x="138" y="585"/>
      <point x="156" y="547" type="curve" smooth="yes"/>
      <point x="183" y="490"/>
      <point x="208" y="434"/>
      <point x="227" y="393" type="curve" smooth="yes"/>
      <point x="257" y="325"/>
      <point x="257" y="297"/>
      <point x="257" y="223" type="curve" smooth="yes"/>
      <point x="257" y="149"/>
      <point x="257" y="90"/>
      <point x="257" y="40" type="curve" smooth="yes"/>
      <point x="257" y="-28"/>
      <point x="167" y="-27"/>
      <point x="167" y="40" type="curve" smooth="yes"/>
      <point x="167" y="114"/>
      <point x="167" y="173"/>
      <point x="167" y="223" type="curve" smooth="yes"/>
      <point x="167" y="283"/>
      <point x="169" y="301"/>
      <point x="145" y="355" type="curve" smooth="yes"/>
      <point x="126" y="396"/>
      <point x="101" y="452"/>
      <point x="74" y="509" type="curve" smooth="yes"/>
      <point x="56" y="547"/>
      <point x="38" y="586"/>
      <point x="22" y="621" type="curve" smooth="yes"/>
      <point x="-6" y="683"/>
      <point x="76" y="720"/>
    </contour>
    <contour>
      <point x="255" y="363" type="curve" smooth="yes"/>
      <point x="296" y="363"/>
      <point x="320" y="363"/>
      <point x="346" y="363" type="curve" smooth="yes"/>
      <point x="414" y="363"/>
      <point x="414" y="273"/>
      <point x="346" y="273" type="curve" smooth="yes"/>
      <point x="307" y="273"/>
      <point x="283" y="273"/>
      <point x="255" y="273" type="curve" smooth="yes"/>
      <point x="188" y="273"/>
      <point x="188" y="363"/>
    </contour>
  </outline>
</glyph>
<glyph name="macron" format="2">
  <advance width="346"/>
  <unicode hex="00AF"/>
  <outline>
    <contour>
      <point x="261" y="603" type="curve" smooth="yes"/>
      <point x="216" y="603"/>
      <point x="115" y="603"/>
      <point x="85" y="603" type="curve" smooth="yes"/>
      <point x="17" y="603"/>
      <point x="18" y="693"/>
      <point x="85" y="693" type="curve" smooth="yes"/>
      <point x="130" y="693"/>
      <point x="231" y="693"/>
      <point x="261" y="693" type="curve" smooth="yes"/>
      <point x="329" y="693"/>
      <point x="329" y="603"/>
    </contour>
  </outline>
</glyph>
<glyph name="mu.math" format="2">
  <advance width="402"/>
  <unicode hex="00B5"/>
  <outline>
    <contour>
      <point x="27" y="-110" type="curve" smooth="yes"/>
      <point x="27" y="458" type="line" smooth="yes"/>
      <point x="27" y="526"/>
      <point x="117" y="526"/>
      <point x="117" y="458" type="curve" smooth="yes"/>
      <point x="117" y="-110" type="line" smooth="yes"/>
      <point x="117" y="-177"/>
      <point x="27" y="-177"/>
    </contour>
    <contour>
      <point x="369" y="458" type="curve" smooth="yes"/>
      <point x="369" y="40" type="line" smooth="yes"/>
      <point x="369" y="-28"/>
      <point x="279" y="-27"/>
      <point x="279" y="40" type="curve" smooth="yes"/>
      <point x="279" y="458" type="line" smooth="yes"/>
      <point x="279" y="526"/>
      <point x="369" y="526"/>
    </contour>
    <contour>
      <point x="117" y="207" type="curve" smooth="yes"/>
      <point x="117" y="133"/>
      <point x="138" y="79"/>
      <point x="183" y="79" type="curve" smooth="yes"/>
      <point x="240" y="79"/>
      <point x="279" y="152"/>
      <point x="279" y="224" type="curve" smooth="yes"/>
      <point x="279" y="292"/>
      <point x="369" y="292"/>
      <point x="369" y="224" type="curve" smooth="yes"/>
      <point x="369" y="93"/>
      <point x="287" y="-11"/>
      <point x="183" y="-11" type="curve" smooth="yes"/>
      <point x="94" y="-11"/>
      <point x="27" y="62"/>
      <point x="27" y="207" type="curve" smooth="yes"/>
      <point x="27" y="275"/>
      <point x="117" y="275"/>
    </contour>
  </outline>
</glyph>
<glyph name="guillemetright" format="2">
  <advance width="451"/>
  <unicode hex="00BB"/>
  <outline>
    <contour>
      <point x="219" y="91" type="curve" smooth="yes"/>
      <point x="250" y="133"/>
      <point x="280" y="175"/>
      <point x="317" y="228" type="curve" smooth="yes"/>
      <point x="344" y="266"/>
      <point x="345" y="256"/>
      <point x="319" y="291" type="curve" smooth="yes"/>
      <point x="280" y="342"/>
      <point x="249" y="390"/>
      <point x="219" y="431" type="curve" smooth="yes"/>
      <point x="179" y="486"/>
      <point x="251" y="539"/>
      <point x="291" y="485" type="curve" smooth="yes"/>
      <point x="323" y="442"/>
      <point x="352" y="396"/>
      <point x="391" y="345" type="curve" smooth="yes"/>
      <point x="443" y="275"/>
      <point x="445" y="253"/>
      <point x="391" y="176" type="curve" smooth="yes"/>
      <point x="352" y="123"/>
      <point x="322" y="79"/>
      <point x="291" y="37" type="curve" smooth="yes"/>
      <point x="251" y="-17"/>
      <point x="179" y="36"/>
    </contour>
    <contour>
      <point x="35" y="91" type="curve" smooth="yes"/>
      <point x="66" y="133"/>
      <point x="96" y="175"/>
      <point x="133" y="228" type="curve" smooth="yes"/>
      <point x="160" y="266"/>
      <point x="161" y="256"/>
      <point x="135" y="291" type="curve" smooth="yes"/>
      <point x="96" y="343"/>
      <point x="65" y="390"/>
      <point x="35" y="431" type="curve" smooth="yes"/>
      <point x="-5" y="486"/>
      <point x="67" y="539"/>
      <point x="107" y="485" type="curve" smooth="yes"/>
      <point x="138" y="442"/>
      <point x="168" y="396"/>
      <point x="207" y="345" type="curve" smooth="yes"/>
      <point x="259" y="275"/>
      <point x="261" y="253"/>
      <point x="207" y="176" type="curve" smooth="yes"/>
      <point x="168" y="123"/>
      <point x="138" y="79"/>
      <point x="107" y="37" type="curve" smooth="yes"/>
      <point x="67" y="-17"/>
      <point x="-5" y="36"/>
    </contour>
  </outline>
</glyph>
<glyph name="AE" format="2">
  <advance width="596"/>
  <unicode hex="00C6"/>
  <outline>
    <contour>
      <point x="315" y="173" type="curve" smooth="yes"/>
      <point x="114" y="173" type="line" smooth="yes"/>
      <point x="46" y="173"/>
      <point x="47" y="263"/>
      <point x="114" y="263" type="curve" smooth="yes"/>
      <point x="315" y="263" type="line" smooth="yes"/>
      <point x="383" y="263"/>
      <point x="383" y="173"/>
    </contour>
    <contour>
      <point x="315" y="395" type="curve" smooth="yes"/>
      <point x="511" y="395" type="line" smooth="yes"/>
      <point x="579" y="395"/>
      <point x="579" y="305"/>
      <point x="511" y="305" type="curve" smooth="yes"/>
      <point x="315" y="305" type="line" smooth="yes"/>
      <point x="248" y="305"/>
      <point x="248" y="395"/>
    </contour>
    <contour>
      <point x="526" y="590" type="curve" smooth="yes"/>
      <point x="253" y="590" type="line"/>
      <point x="296" y="621" type="line"/>
      <point x="95" y="26" type="line" smooth="yes"/>
      <point x="73" y="-38"/>
      <point x="-12" y="-10"/>
      <point x="9" y="54" type="curve" smooth="yes"/>
      <point x="210" y="649" type="line" smooth="yes"/>
      <point x="217" y="668"/>
      <point x="234" y="680"/>
      <point x="253" y="680" type="curve" smooth="yes"/>
      <point x="526" y="680" type="line" smooth="yes"/>
      <point x="594" y="680"/>
      <point x="594" y="590"/>
    </contour>
    <contour>
      <point x="525" y="0" type="curve" smooth="yes"/>
      <point x="315" y="0" type="line" smooth="yes"/>
      <point x="290" y="0"/>
      <point x="270" y="20"/>
      <point x="270" y="45" type="curve" smooth="yes"/>
      <point x="270" y="635" type="line" smooth="yes"/>
      <point x="270" y="703"/>
      <point x="360" y="703"/>
      <point x="360" y="635" type="curve" smooth="yes"/>
      <point x="360" y="45" type="line"/>
      <point x="315" y="90" type="line"/>
      <point x="525" y="90" type="line" smooth="yes"/>
      <point x="593" y="90"/>
      <point x="593" y="0"/>
    </contour>
  </outline>
</glyph>
<glyph name="OE" format="2">
  <advance width="659"/>
  <unicode hex="0152"/>
  <outline>
    <contour>
      <point x="378" y="395" type="curve" smooth="yes"/>
      <point x="575" y="395" type="line" smooth="yes"/>
      <point x="643" y="395"/>
      <point x="643" y="305"/>
      <point x="575" y="305" type="curve" smooth="yes"/>
      <point x="378" y="305" type="line" smooth="yes"/>
      <point x="311" y="305"/>
      <point x="311" y="395"/>
    </contour>
    <contour>
      <point x="589" y="0" type="curve" smooth="yes"/>
      <point x="253" y="0" type="line" smooth="yes"/>
      <point x="117" y="0"/>
      <point x="18" y="135"/>
      <point x="18" y="339" type="curve" smooth="yes"/>
      <point x="18" y="544"/>
      <point x="116" y="680"/>
      <point x="252" y="680" type="curve" smooth="yes"/>
      <point x="589" y="680" type="line" smooth="yes"/>
      <point x="657" y="680"/>
      <point x="657" y="590"/>
      <point x="589" y="590" type="curve" smooth="yes"/>
      <point x="252" y="590" type="line" smooth="yes"/>
      <point x="161" y="590"/>
      <point x="108" y="476"/>
      <point x="108" y="339" type="curve" smooth="yes"/>
      <point x="108" y="203"/>
      <point x="162" y="90"/>
      <point x="253" y="90" type="curve" smooth="yes"/>
      <point x="589" y="90" type="line" smooth="yes"/>
      <point x="657" y="90"/>
      <point x="657" y="0"/>
    </contour>
    <contour>
      <point x="333" y="45" type="curve" smooth="yes"/>
      <point x="333" y="635" type="line" smooth="yes"/>
      <point x="333" y="703"/>
      <point x="423" y="703"/>
      <point x="423" y="635" type="curve" smooth="yes"/>
      <point x="423" y="45" type="line" smooth="yes"/>
      <point x="423" y="-23"/>
      <point x="333" y="-22"/>
    </contour>
  </outline>
</glyph>
<glyph name="divisionslash" format="2">
  <advance width="366"/>
  <unicode hex="2215"/>
  <outline>
    <contour>
      <point x="358" y="675" type="curve" smooth="yes"/>
      <point x="345" y="638"/>
      <point x="332" y="603"/>
      <point x="318" y="567" type="curve" smooth="yes"/>
      <point x="267" y="427"/>
      <point x="213" y="284"/>
      <point x="161" y="143" type="curve" smooth="yes"/>
      <point x="139" y="81"/>
      <point x="116" y="20"/>
      <point x="92" y="-45" type="curve" smooth="yes"/>
      <point x="70" y="-109"/>
      <point x="-15" y="-78"/>
      <point x="8" y="-15" type="curve" smooth="yes"/>
      <point x="30" y="48"/>
      <point x="53" y="109"/>
      <point x="77" y="175" type="curve" smooth="yes"/>
      <point x="127" y="311"/>
      <point x="181" y="453"/>
      <point x="234" y="599" type="curve" smooth="yes"/>
      <point x="248" y="635"/>
      <point x="261" y="670"/>
      <point x="274" y="705" type="curve" smooth="yes"/>
      <point x="297" y="769"/>
      <point x="381" y="738"/>
    </contour>
  </outline>
</glyph>
<glyph name="A" format="2">
  <advance width="461"/>
  <outline>
    <contour>
      <point x="21.033343298094202" y="26.41925751331216" type="curve" smooth="yes"/>
      <point x="15.482625099684894" y="46.05508969146686"/>
      <point x="10.688149996936161" y="67.60195242538825"/>
      <point x="14.519099683596288" y="101.62060320354783" type="curve" smooth="yes"/>
      <point x="16.794157898904384" y="121.82301181153528"/>
      <point x="21.412688285124865" y="145.1837844571751"/>
      <point x="29.4473870265944" y="174.31874067728043" type="curve" smooth="yes"/>
      <point x="44.84541790007428" y="230.15418265336817"/>
      <point x="84.17957923179216" y="268.0261804260349"/>
      <point x="139.17341554356423" y="268.0261804260349" type="curve" smooth="yes"/>
      <point x="230.3901903166289" y="268.0261804260349" type="line" smooth="yes"/>
      <point x="265.0441182294856" y="268.0261804260349"/>
      <point x="308.8870831749778" y="268.01954771336517"/>
      <point x="335.05433446572783" y="268.0130889336243" type="curve" smooth="yes"/>
      <point x="423.97134328318367" y="267.9911418300185"/>
      <point x="451.11235057427" y="168.00000048738787"/>
      <point x="336.45620587913317" y="168.00000048738787" type="curve" smooth="yes"/>
      <point x="260.08867351098604" y="168.00000048738787" type="line" smooth="yes"/>
      <point x="185.83160843912106" y="168.00000048738787"/>
      <point x="106.4638673578644" y="245.21007923464128"/>
      <point x="133.85418333287157" y="353.2947344142875" type="curve" smooth="yes"/>
      <point x="151.65816466106145" y="423.5508491826663"/>
      <point x="209.72003713710953" y="510.144285050407"/>
      <point x="228.18590959377036" y="577.2662126844544" type="curve" smooth="yes"/>
      <point x="230.38444389985784" y="585.2577040662193"/>
      <point x="308.03607817809365" y="586.0983695056171"/>
      <point x="310.00832796001606" y="578.3301146173603" type="curve" smooth="yes"/>
      <point x="426.5838166676368" y="125.49136772442814" type="line" smooth="yes"/>
      <point x="434.06561577484416" y="96.00301366502242"/>
      <point x="446.7266212129172" y="81.96899969813228"/>
      <point x="455.23064730746194" y="71.4427537333065" type="curve" smooth="yes"/>
      <point x="502.362833584548" y="13.102741591192064"/>
      <point x="424.5761507283955" y="-49.74017344492269"/>
      <point x="377.4439644513094" y="8.599838697191746" type="curve" smooth="yes"/>
      <point x="363.364226856298" y="26.02767574726494"/>
      <point x="342.0136851263391" y="52.187939356855466"/>
      <point x="329.74128168459004" y="100.56099632612448" type="curve" smooth="yes"/>
      <point x="213.08334515402618" y="553.7222356340233" type="line" smooth="yes"/>
      <point x="165.47400839503214" y="741.2448640529439"/>
      <point x="377.6755083617638" y="743.6522289474682"/>
      <point x="324.603751876288" y="550.740759067531" type="curve" smooth="yes"/>
      <point x="302.22547109868464" y="469.397548967167"/>
      <point x="245.48132622809564" y="386.70286430022736"/>
      <point x="230.79003303576263" y="328.72969742309783" type="curve" smooth="yes"/>
      <point x="222.9684670403989" y="297.8650931467133"/>
      <point x="238.8838602619685" y="268.00000048738787"/>
      <point x="260.08867351098604" y="268.00000048738787" type="curve" smooth="yes"/>
      <point x="336.45620587913317" y="268.00000048738787" type="line" smooth="yes"/>
      <point x="339.06937387780914" y="268.00000048738787"/>
      <point x="337.05619020035704" y="168.01259177574084"/>
      <point x="335.0296517832701" y="168.01309197979845" type="curve" smooth="yes"/>
      <point x="303.1512741364179" y="168.02096041876544"/>
      <point x="272.6075018973587" y="168.02618042603487"/>
      <point x="230.3901903166289" y="168.02618042603487" type="curve" smooth="yes"/>
      <point x="139.17341554356423" y="168.02618042603487" type="line" smooth="yes"/>
      <point x="132.2710629893607" y="168.02618042603487"/>
      <point x="127.78142318387522" y="154.74160555774566"/>
      <point x="125.84879500484199" y="147.7336219111086" type="curve" smooth="yes"/>
      <point x="119.57083709309701" y="124.96885688434904"/>
      <point x="115.66861058699783" y="106.21528378961091"/>
      <point x="113.89098081119099" y="90.43001603561129" type="curve" smooth="yes"/>
      <point x="111.87523716363218" y="72.53030844003119"/>
      <point x="114.34176921343588" y="63.953441273563094"/>
      <point x="117.26240922778882" y="53.62158958794295" type="curve" smooth="yes"/>
      <point x="137.66415828376188" y="-18.55020985932802"/>
      <point x="41.43509235406725" y="-45.75254193395881"/>
    </contour>
  </outline>
</glyph>
